<?xml version="1.0" encoding="UTF-8" standalone="no"?>
<svg
   xmlns:dc="http://purl.org/dc/elements/1.1/"
   xmlns:cc="http://creativecommons.org/ns#"
   xmlns:rdf="http://www.w3.org/1999/02/22-rdf-syntax-ns#"
   xmlns:svg="http://www.w3.org/2000/svg"
   xmlns="http://www.w3.org/2000/svg"
   xmlns:sodipodi="http://sodipodi.sourceforge.net/DTD/sodipodi-0.dtd"
   xmlns:inkscape="http://www.inkscape.org/namespaces/inkscape"
   width="25"
   height="24.999998"
   viewBox="0 0 25 24.999998"
   version="1.1"
   id="svg10"
   sodipodi:docname="s1kreis.svg"
   inkscape:version="1.0.2 (e86c870879, 2021-01-15, custom)">
  <metadata
     id="metadata16">
    <rdf:RDF>
      <cc:Work
         rdf:about="">
        <dc:format>image/svg+xml</dc:format>
        <dc:type
           rdf:resource="http://purl.org/dc/dcmitype/StillImage" />
        <dc:title></dc:title>
      </cc:Work>
    </rdf:RDF>
  </metadata>
  <defs
     id="defs14" />
  <sodipodi:namedview
     pagecolor="#ffffff"
     bordercolor="#666666"
     borderopacity="1"
     objecttolerance="10"
     gridtolerance="10"
     guidetolerance="10"
     inkscape:pageopacity="0"
     inkscape:pageshadow="2"
     inkscape:window-width="2149"
     inkscape:window-height="1712"
     id="namedview12"
     showgrid="false"
     fit-margin-top="0"
     fit-margin-left="0"
     fit-margin-right="0"
     fit-margin-bottom="0"
     lock-margins="true"
     inkscape:zoom="3.9126575"
     inkscape:cx="54.716242"
     inkscape:cy="165.95994"
     inkscape:window-x="2391"
     inkscape:window-y="0"
     inkscape:window-maximized="0"
     inkscape:current-layer="Gruppe_143" />
  <rect
     id="Rechteck_33"
     data-name="Rechteck 33"
     width="150"
     height="150"
     fill="none"
     x="-36.299999"
     y="-36.299999" />
  <g
     id="Gruppe_143"
     data-name="Gruppe 143"
     opacity="0.85"
     transform="translate(-36.3,-36.3)">
    <circle
       id="Ellipse_17"
       data-name="Ellipse 17"
       cx="48.799999"
       cy="48.799999"
       r="12.499999"
       fill="#00b6e2"
       style="stroke-width: 0.322997;" />
    <rect
       id="Rechteck_43"
       data-name="Rechteck 43"
       width="150"
       height="150"
       transform="translate(-1,3)"
       fill="none"
       x="0"
       y="0" />
  </g>
  <path
     id="Pfad_473"
     data-name="Pfad 473"
     d="m 3.8435878,14.696072 h 2.196336 c 0.1937943,1.324261 0.8397756,1.808747 2.4547286,1.808747 1.1304671,0 2.0994386,-0.387588 2.0994386,-1.421158 0,-1.03357 -1.0335697,-1.227364 -2.6485227,-1.614953 -1.9056445,-0.484486 -3.7143918,-0.936672 -3.7143918,-3.229906 0,-2.1963362 1.7118502,-3.2299061 4.1665787,-3.2299061 2.4547288,0 4.0050838,1.2273643 4.1665788,3.4237001 H 10.464895 C 10.367998,9.3021292 9.5282222,8.8176433 8.3654562,8.8176433 c -1.1627662,0 -2.0025418,0.4844859 -2.0025418,1.2273637 0,0.839776 0.7751774,1.130467 2.3901305,1.518056 2.2932331,0.484486 4.0696821,1.03357 4.0696821,3.326804 0,2.196336 -1.808748,3.4237 -4.2634765,3.4237 -3.0038126,-0.0323 -4.6187655,-1.35656 -4.7156627,-3.617495 z"
     fill="#ffffff"
     style="stroke-width: 0.32299;" />
  <path
     id="Pfad_474"
     data-name="Pfad 474"
     d="M 17.409193,10.594091 H 15.148259 V 9.4636244 c 1.130467,0 2.260934,-0.3875887 2.648523,-1.9056445 h 1.905645 V 18.152072 h -2.260935 z"
     fill="#ffffff"
     style="stroke-width: 0.32299;" />
  <path
     id="Pfad_472"
     data-name="Pfad 472"
     d="M 12.499736,1.5180558 A 10.557917,10.557917 0 0 1 23.093828,12.039797 v 0.07235 c 0,5.684635 -4.909458,10.981681 -10.594092,10.981681 -5.6846348,0 -10.5940917,-4.909458 -10.5940917,-10.981681 v 0 A 10.578265,10.578265 0 0 1 12.467437,1.5180558 h 0.0323 M 12.499737,0 a 12.499736,12.499736 0 1 0 12.499736,12.499736 v 0 A 12.386043,12.386043 0 0 0 12.728413,0 Z"
     fill="#00b6e2"
     style="stroke-width: 0.32299;" />
</svg>
