<?xml version="1.0" encoding="UTF-8" standalone="no"?>
<svg
   xmlns:dc="http://purl.org/dc/elements/1.1/"
   xmlns:cc="http://creativecommons.org/ns#"
   xmlns:rdf="http://www.w3.org/1999/02/22-rdf-syntax-ns#"
   xmlns:svg="http://www.w3.org/2000/svg"
   xmlns="http://www.w3.org/2000/svg"
   xmlns:sodipodi="http://sodipodi.sourceforge.net/DTD/sodipodi-0.dtd"
   xmlns:inkscape="http://www.inkscape.org/namespaces/inkscape"
   id="s20kreis"
   width="25"
   height="24.999966"
   viewBox="0 0 25 24.999966"
   version="1.1"
   sodipodi:docname="s20kreis.svg"
   inkscape:version="1.0.2 (e86c870879, 2021-01-15, custom)">
  <metadata
     id="metadata14">
    <rdf:RDF>
      <cc:Work
         rdf:about="">
        <dc:format>image/svg+xml</dc:format>
        <dc:type
           rdf:resource="http://purl.org/dc/dcmitype/StillImage" />
        <dc:title></dc:title>
      </cc:Work>
    </rdf:RDF>
  </metadata>
  <defs
     id="defs12" />
  <sodipodi:namedview
     pagecolor="#ffffff"
     bordercolor="#666666"
     borderopacity="1"
     objecttolerance="10"
     gridtolerance="10"
     guidetolerance="10"
     inkscape:pageopacity="0"
     inkscape:pageshadow="2"
     inkscape:window-width="2149"
     inkscape:window-height="1712"
     id="namedview10"
     showgrid="false"
     fit-margin-top="0"
     fit-margin-left="0"
     fit-margin-right="0"
     fit-margin-bottom="0"
     inkscape:zoom="5.5333333"
     inkscape:cx="38.800001"
     inkscape:cy="37.9"
     inkscape:window-x="2391"
     inkscape:window-y="0"
     inkscape:window-maximized="0"
     inkscape:current-layer="s20kreis" />
  <rect
     id="Rechteck_34"
     data-name="Rechteck 34"
     width="150"
     height="150"
     fill="none"
     x="-36.200001"
     y="-37.099998" />
  <g
     id="Gruppe_144"
     data-name="Gruppe 144"
     opacity="0.85"
     transform="matrix(0.3221645,0,0,0.3221645,-11.662354,-11.952303)">
    <circle
       id="Ellipse_18"
       data-name="Ellipse 18"
       cx="38.799999"
       cy="38.799999"
       r="38.799999"
       transform="translate(36.2,37.1)"
       fill="#eb4866" />
  </g>
  <path
     id="Pfad_475"
     data-name="Pfad 475"
     d="M 12.499984,1.771905 A 10.695862,10.695862 0 1 1 1.804122,12.467766 v 0 A 10.75224,10.75224 0 0 1 12.499984,1.771905 m 0,-1.771904950000003 A 12.499983,12.499983 0 1 0 24.999966,12.499983 v 0 A 12.470666,12.470666 0 0 0 12.558618,4.9999997e-8 Z"
     fill="#eb4866"
     style="stroke-width:0.322165" />
  <path
     id="Pfad_476"
     data-name="Pfad 476"
     d="m 2.64175,14.014156 h 1.610822 c 0.09665,0.934277 0.676546,1.320874 1.804122,1.320874 0.837627,0 1.610822,-0.289948 1.610822,-1.030926 0,-0.773195 -0.773195,-0.934277 -1.99742,-1.224225 -1.417524,-0.289948 -2.738398,-0.773195 -2.738398,-2.384017 0,-1.610823 1.320874,-2.4484509 3.124996,-2.4484509 1.804121,0 3.028346,0.837628 3.124995,2.5450999 H 7.570867 C 7.474217,9.954883 6.797672,9.5682861 5.960044,9.5682861 c -0.837627,0 -1.417524,0.386597 -1.417524,0.9342769 0,0.676545 0.579897,0.837628 1.804122,1.127576 1.707472,0.386597 3.028346,0.773194 3.028346,2.545099 0,1.610823 -1.320874,2.5451 -3.124996,2.5451 -2.287368,-0.06443 -3.511593,-0.99871 -3.608242,-2.706182 z"
     fill="#ffffff"
     style="stroke-width:0.322165" />
  <path
     id="Pfad_477"
     data-name="Pfad 477"
     d="m 12.306685,13.33761 c 0.934277,-0.773194 2.094069,-1.320874 2.094069,-2.287368 0,-0.773194 -0.386597,-1.224225 -1.030926,-1.224225 -0.773195,0 -1.224225,0.579896 -1.224225,1.610823 h -1.417524 c 0,-1.804121 0.934277,-2.931697 2.738398,-2.931697 1.707472,0 2.641749,1.127576 2.641749,2.44845 0,1.417524 -1.030926,2.190719 -1.99742,2.835048 -0.579896,0.386597 -1.320874,0.837627 -1.610822,1.417524 h 3.608242 v 1.224225 h -5.605662 c 0,-1.481957 0.966493,-2.319585 1.804121,-3.09278 z"
     fill="#ffffff"
     style="stroke-width:0.322165" />
  <path
     id="Pfad_478"
     data-name="Pfad 478"
     d="m 16.301525,12.596632 c 0,-2.44845 1.320874,-4.059273 3.221645,-4.059273 1.99742,0 3.221645,1.610823 3.221645,4.059273 0,2.44845 -1.224225,4.059273 -3.221645,4.059273 -1.99742,0 -3.221645,-1.610823 -3.221645,-4.059273 z m 4.929117,0 c 0,-1.610822 -0.483247,-2.7383979 -1.610823,-2.7383979 -1.127576,0 -1.610822,1.1275759 -1.610822,2.7383979 0,1.610823 0.483246,2.738398 1.610822,2.738398 1.127576,0 1.610823,-1.030926 1.610823,-2.738398 z"
     fill="#ffffff"
     style="stroke-width:0.322165" />
</svg>
