<?xml version="1.0" encoding="UTF-8" standalone="no"?>
<svg
   xmlns:dc="http://purl.org/dc/elements/1.1/"
   xmlns:cc="http://creativecommons.org/ns#"
   xmlns:rdf="http://www.w3.org/1999/02/22-rdf-syntax-ns#"
   xmlns:svg="http://www.w3.org/2000/svg"
   xmlns="http://www.w3.org/2000/svg"
   xmlns:sodipodi="http://sodipodi.sourceforge.net/DTD/sodipodi-0.dtd"
   xmlns:inkscape="http://www.inkscape.org/namespaces/inkscape"
   id="s6kreis"
   width="25.000002"
   height="24.999996"
   viewBox="0 0 25.000002 24.999996"
   version="1.1"
   sodipodi:docname="s6kreis.svg"
   inkscape:version="1.0.2 (e86c870879, 2021-01-15, custom)">
  <metadata
     id="metadata13">
    <rdf:RDF>
      <cc:Work
         rdf:about="">
        <dc:format>image/svg+xml</dc:format>
        <dc:type
           rdf:resource="http://purl.org/dc/dcmitype/StillImage" />
        <dc:title></dc:title>
      </cc:Work>
    </rdf:RDF>
  </metadata>
  <defs
     id="defs11" />
  <sodipodi:namedview
     pagecolor="#ffffff"
     bordercolor="#666666"
     borderopacity="1"
     objecttolerance="10"
     gridtolerance="10"
     guidetolerance="10"
     inkscape:pageopacity="0"
     inkscape:pageshadow="2"
     inkscape:window-width="2149"
     inkscape:window-height="1712"
     id="namedview9"
     showgrid="false"
     fit-margin-top="0"
     fit-margin-left="0"
     fit-margin-right="0"
     fit-margin-bottom="0"
     inkscape:zoom="5.5333333"
     inkscape:cx="38.800001"
     inkscape:cy="37.9"
     inkscape:window-x="2391"
     inkscape:window-y="0"
     inkscape:window-maximized="0"
     inkscape:current-layer="Gruppe_148" />
  <rect
     id="Rechteck_38"
     data-name="Rechteck 38"
     width="150"
     height="150"
     fill="none"
     x="-36.199997"
     y="-37.099998" />
  <g
     id="Gruppe_148"
     data-name="Gruppe 148"
     opacity="0.85"
     transform="translate(-36.199999,-37.1)">
    <circle
       id="Ellipse_22"
       data-name="Ellipse 22"
       cx="48.699997"
       cy="49.599998"
       r="12.499998"
       fill="#008351"
       style="stroke-width:0.322165" />
  </g>
  <path
     id="Pfad_488"
     data-name="Pfad 488"
     d="M 12.499999,1.771907 A 10.695875,10.695875 0 1 1 1.8041241,12.467782 v 0 A 10.752254,10.752254 0 0 1 12.499999,1.771907 m 0,-1.771907 a 12.499998,12.499998 0 1 0 12.499999,12.499998 v 0 A 12.4913,12.4913 0 0 0 12.517719,0 Z"
     fill="#008351"
     style="stroke-width:0.322165" />
  <path
     id="Pfad_489"
     data-name="Pfad 489"
     d="m 3.0283511,14.400771 h 2.190722 c 0.193298,1.320877 0.837628,1.804124 2.448453,1.804124 1.127577,0 2.094072,-0.386598 2.094072,-1.417526 0,-1.030927 -1.030928,-1.224226 -2.641753,-1.610824 -1.900772,-0.483248 -3.704896,-0.934278 -3.704896,-3.221649 0,-2.190722 1.707474,-3.221649 4.155927,-3.221649 2.4484539,0 3.9948449,1.224226 4.1559279,3.414948 H 9.6327321 C 9.5360821,9.020617 8.6984541,8.53737 7.5386601,8.53737 c -1.159794,0 -1.997423,0.483247 -1.997423,1.224227 0,0.837629 0.773196,1.127577 2.384021,1.514175 2.2873709,0.483247 4.0592779,1.030928 4.0592779,3.318298 0,2.190722 -1.804124,3.414948 -4.2525769,3.414948 -2.996134,-0.03222 -4.606958,-1.353092 -4.703608,-3.608247 z"
     fill="#ffffff"
     style="stroke-width:0.322165" />
  <path
     id="Pfad_490"
     data-name="Pfad 490"
     d="m 13.434278,12.693297 c 0,-1.804123 0.386598,-3.318298 1.224226,-4.349226 0.676547,-0.773196 1.610825,-1.224227 3.028351,-1.224227 2.094071,0 3.318298,1.127578 3.608247,2.641753 H 19.297679 C 19.10438,9.08505 18.717782,8.63402 17.783504,8.63402 c -1.514175,0 -2.287371,1.127577 -2.287371,2.9317 v 0 c 0.579897,-0.676546 1.224227,-1.030927 2.448453,-1.030927 a 3.6240331,3.6240331 0 0 1 3.608247,3.63853 q 0,0.03222 0,0.06637 c 0,2.190721 -1.707474,3.608247 -3.898195,3.608247 -2.867268,0.128866 -4.22036,-2.319587 -4.22036,-5.154639 z m 6.185566,1.707474 A 2.0296389,2.0296389 0 0 0 17.656893,12.3067 h -0.03447 c -1.224227,0 -1.997423,0.837628 -1.997423,2.094071 a 1.9974225,1.9974225 0 0 0 3.994845,0 z"
     fill="#ffffff"
     style="stroke-width:0.322165" />
</svg>
