<?xml version="1.0" encoding="UTF-8" standalone="no"?>
<svg
   xmlns:dc="http://purl.org/dc/elements/1.1/"
   xmlns:cc="http://creativecommons.org/ns#"
   xmlns:rdf="http://www.w3.org/1999/02/22-rdf-syntax-ns#"
   xmlns:svg="http://www.w3.org/2000/svg"
   xmlns="http://www.w3.org/2000/svg"
   xmlns:sodipodi="http://sodipodi.sourceforge.net/DTD/sodipodi-0.dtd"
   xmlns:inkscape="http://www.inkscape.org/namespaces/inkscape"
   id="s8kreis"
   width="25.000002"
   height="24.999996"
   viewBox="0 0 25.000002 24.999996"
   version="1.1"
   sodipodi:docname="s8kreis.svg"
   inkscape:version="1.0.2 (e86c870879, 2021-01-15, custom)">
  <metadata
     id="metadata13">
    <rdf:RDF>
      <cc:Work
         rdf:about="">
        <dc:format>image/svg+xml</dc:format>
        <dc:type
           rdf:resource="http://purl.org/dc/dcmitype/StillImage" />
        <dc:title></dc:title>
      </cc:Work>
    </rdf:RDF>
  </metadata>
  <defs
     id="defs11" />
  <sodipodi:namedview
     pagecolor="#ffffff"
     bordercolor="#666666"
     borderopacity="1"
     objecttolerance="10"
     gridtolerance="10"
     guidetolerance="10"
     inkscape:pageopacity="0"
     inkscape:pageshadow="2"
     inkscape:window-width="2149"
     inkscape:window-height="1721"
     id="namedview9"
     showgrid="false"
     fit-margin-top="0"
     fit-margin-left="0"
     fit-margin-right="0"
     fit-margin-bottom="0"
     inkscape:zoom="5.5333333"
     inkscape:cx="38.800001"
     inkscape:cy="37.9"
     inkscape:window-x="2391"
     inkscape:window-y="-9"
     inkscape:window-maximized="0"
     inkscape:current-layer="Gruppe_150" />
  <rect
     id="Rechteck_40"
     data-name="Rechteck 40"
     width="150"
     height="150"
     fill="none"
     x="-36.199997"
     y="-37.099998" />
  <g
     id="Gruppe_150"
     data-name="Gruppe 150"
     opacity="0.85"
     transform="translate(-36.199999,-37.1)">
    <circle
       id="Ellipse_24"
       data-name="Ellipse 24"
       cx="48.699997"
       cy="49.599998"
       r="12.499998"
       style="stroke-width:0.322165" />
  </g>
  <path
     id="Pfad_494"
     data-name="Pfad 494"
     d="M 12.499999,1.771907 A 10.695875,10.695875 0 1 1 1.8041241,12.467782 v 0 A 10.752254,10.752254 0 0 1 12.499999,1.771907 m 0,-1.771907 a 12.499998,12.499998 0 1 0 12.499999,12.499998 v 0 A 12.4913,12.4913 0 0 0 12.517719,0 Z"
     style="stroke-width:0.322165" />
  <path
     id="Pfad_495"
     data-name="Pfad 495"
     d="m 3.2216501,14.400771 h 2.190721 c 0.193299,1.320877 0.837629,1.804124 2.448454,1.804124 1.127577,0 2.094072,-0.386598 2.094072,-1.417526 0,-1.030927 -1.030928,-1.224226 -2.641753,-1.610824 -1.900773,-0.483248 -3.704896,-0.934278 -3.704896,-3.221649 0,-2.190722 1.707474,-3.221649 4.155927,-3.221649 2.4484539,0 3.9948449,1.224226 4.1559279,3.414948 H 9.8260311 C 9.7293811,9.020617 8.8917521,8.53737 7.7319591,8.53737 c -1.159794,0 -1.997423,0.483247 -1.997423,1.224227 0,0.837629 0.773196,1.127577 2.384021,1.514175 2.0940719,0.483247 3.8981949,0.934278 3.8981949,3.318298 0,2.190722 -1.804123,3.414948 -4.2525769,3.414948 -2.835051,-0.03222 -4.542525,-1.353092 -4.542525,-3.608247 z"
     fill="#f2b42c"
     style="stroke-width:0.322165" />
  <path
     id="Pfad_496"
     data-name="Pfad 496"
     d="m 13.434278,14.755153 a 2.8701672,2.8701672 0 0 1 1.900773,-2.738402 v 0 A 2.0647549,2.0647549 0 0 1 13.917525,9.922679 c 0,-1.804123 1.514175,-2.738402 3.801546,-2.738402 2.287371,0 3.704896,0.934279 3.704896,2.738402 0,0.934278 -0.579896,1.610825 -1.417525,2.094072 v 0 a 2.7770615,2.7770615 0 0 1 1.900773,2.641752 c 0,2.190722 -1.804124,3.318299 -4.155927,3.318299 -2.416237,0 -4.31701,-1.127577 -4.31701,-3.221649 z m 6.282215,-0.09665 c 0,-1.030927 -0.773195,-1.804123 -1.997422,-1.804123 -1.224227,0 -2.094072,0.676546 -2.094072,1.804123 0,1.030928 0.773196,1.610825 2.094072,1.610825 1.127577,0 1.997422,-0.64433 1.997422,-1.610825 z m -0.289948,-4.542525 c 0,-0.837629 -0.676546,-1.320876 -1.707474,-1.320876 -1.127577,0 -1.707474,0.579897 -1.707474,1.320876 0,0.773196 0.676546,1.417526 1.707474,1.417526 1.030928,-0.09665 1.707474,-0.64433 1.707474,-1.417526 z"
     fill="#f2b42c"
     style="stroke-width:0.322165" />
</svg>
