<?xml version="1.0" encoding="utf-8"?>
<!-- Generator: Adobe Illustrator 24.0.0, SVG Export Plug-In . SVG Version: 6.00 Build 0)  -->
<svg version="1.1" id="Ebene_1" xmlns="http://www.w3.org/2000/svg" xmlns:xlink="http://www.w3.org/1999/xlink" x="0px" y="0px"
	 viewBox="0 0 12.8 12.8" style="enable-background:new 0 0 12.8 12.8;" xml:space="preserve"  width="150" height="150">
<style type="text/css">
	.st0{fill:none;}
	.st1{opacity:0.85;}
	.st2{fill:#00B6E2;}
	.st3{enable-background:new    ;}
	.st4{fill:#FFFFFF;}
</style>
<title>s1kreis_7</title>
<g>
	<rect class="st0" width="12.8" height="12.8"/>
	<g>
		<g class="st1">
			<circle class="st2" cx="6.4" cy="6.4" r="3.3"/>
		</g>
		<path class="st2" d="M6.4,3.6c1.6,0,2.8,1.3,2.8,2.8S7.9,9.3,6.4,9.3S3.6,8,3.6,6.4c0,0,0,0,0,0C3.6,4.9,4.8,3.6,6.4,3.6 M6.4,3.2
			c-1.8,0-3.3,1.5-3.3,3.3s1.5,3.3,3.3,3.3s3.3-1.5,3.3-3.3c0,0,0,0,0,0C9.7,4.6,8.2,3.2,6.4,3.2z"/>
		<g class="st3">
			<path class="st4" d="M4.3,7h0.6c0,0.3,0.2,0.5,0.6,0.5c0.3,0,0.6-0.1,0.6-0.4c0-0.3-0.3-0.3-0.7-0.4c-0.5-0.1-1-0.3-1-0.8
				c0-0.6,0.5-0.9,1.1-0.9c0.6,0,1.1,0.3,1.1,0.9H6c0-0.3-0.3-0.4-0.6-0.4C5.2,5.4,5,5.5,5,5.7C5,6,5.2,6,5.6,6.1
				C6.2,6.2,6.7,6.4,6.7,7c0,0.6-0.5,0.9-1.1,0.9C4.8,7.9,4.3,7.6,4.3,7z"/>
			<path class="st4" d="M7.7,5.9H7.1V5.6c0.3,0,0.6-0.1,0.7-0.5h0.5v2.8H7.7V5.9z"/>
		</g>
	</g>
</g>
</svg>
