<?xml version="1.0" encoding="utf-8"?>
<!-- Generator: Adobe Illustrator 24.0.0, SVG Export Plug-In . SVG Version: 6.00 Build 0)  -->
<svg version="1.1" id="Ebene_1" xmlns="http://www.w3.org/2000/svg" xmlns:xlink="http://www.w3.org/1999/xlink" x="0px" y="0px"
	 viewBox="0 0 51 51" style="enable-background:new 0 0 51 51;" xml:space="preserve" width="150" height="150">
<style type="text/css">
	.st0{fill:none;}
	.st1{opacity:0.85;}
	.st2{fill:#EB4866;}
	.st3{enable-background:new    ;}
	.st4{fill:#FFFFFF;}
</style>
<title>s20kreis_1</title>
<g>
	<rect class="st0" width="51" height="51"/>
	<g>
		<g class="st1">
			<circle class="st2" cx="25.5" cy="25.8" r="13.2"/>
		</g>
		<path class="st2" d="M25.5,14.5c6.2,0,11.3,5.1,11.3,11.3s-5.1,11.3-11.3,11.3S14.2,32,14.2,25.8c0,0,0,0,0,0
			C14.2,19.6,19.3,14.5,25.5,14.5 M25.5,12.6c-7.3,0-13.2,5.9-13.2,13.2S18.2,39,25.5,39s13.2-5.9,13.2-13.2c0,0,0,0,0,0
			C38.7,18.5,32.8,12.6,25.5,12.6C25.5,12.6,25.5,12.6,25.5,12.6z"/>
		<g class="st3">
			<path class="st4" d="M15.1,27.4h1.7c0.1,1,0.7,1.4,1.9,1.4c0.9,0,1.7-0.3,1.7-1.1c0-0.8-0.8-1-2.1-1.3c-1.5-0.3-2.9-0.8-2.9-2.5
				c0-1.7,1.4-2.6,3.3-2.6c1.9,0,3.2,0.9,3.3,2.7h-1.7c-0.1-0.9-0.8-1.3-1.7-1.3c-0.9,0-1.5,0.4-1.5,1c0,0.7,0.6,0.9,1.9,1.2
				c1.8,0.4,3.2,0.8,3.2,2.7c0,1.7-1.4,2.7-3.3,2.7C16.5,30.2,15.2,29.2,15.1,27.4z"/>
		</g>
		<g class="st3">
			<path class="st4" d="M25.3,26.7c1-0.8,2.2-1.4,2.2-2.4c0-0.8-0.4-1.3-1.1-1.3c-0.8,0-1.3,0.6-1.3,1.7h-1.5c0-1.9,1-3.1,2.9-3.1
				c1.8,0,2.8,1.2,2.8,2.6c0,1.5-1.1,2.3-2.1,3c-0.6,0.4-1.4,0.9-1.7,1.5h3.8V30h-5.9C23.4,28.4,24.4,27.5,25.3,26.7z"/>
		</g>
		<g class="st3">
			<path class="st4" d="M29.5,25.9c0-2.6,1.4-4.3,3.4-4.3c2.1,0,3.4,1.7,3.4,4.3c0,2.6-1.3,4.3-3.4,4.3
				C30.8,30.2,29.5,28.5,29.5,25.9z M34.7,25.9c0-1.7-0.5-2.9-1.7-2.9c-1.2,0-1.7,1.2-1.7,2.9c0,1.7,0.5,2.9,1.7,2.9
				C34.2,28.8,34.7,27.7,34.7,25.9z"/>
		</g>
	</g>
</g>
</svg>
