<?xml version="1.0" encoding="utf-8"?>
<!-- Generator: Adobe Illustrator 24.0.0, SVG Export Plug-In . SVG Version: 6.00 Build 0)  -->
<svg version="1.1" id="Ebene_1" xmlns="http://www.w3.org/2000/svg" xmlns:xlink="http://www.w3.org/1999/xlink" x="0px" y="0px"
	 viewBox="0 0 51 51" style="enable-background:new 0 0 51 51;" xml:space="preserve" width="150" height="150">
<style type="text/css">
	.st0{fill:none;}
	.st1{opacity:0.85;}
	.st2{fill:#E4001B;}
	.st3{enable-background:new    ;}
	.st4{fill:#FFFFFF;}
</style>
<title>s4kreis_1</title>
<g>
	<rect class="st0" width="51" height="51"/>
	<g>
		<g class="st1">
			<circle class="st2" cx="25.5" cy="25.8" r="13.2"/>
		</g>
		<path class="st2" d="M25.5,14.5c6.2,0,11.3,5.1,11.3,11.3c0,6.2-5.1,11.3-11.3,11.3c-6.2,0-11.3-5.1-11.3-11.3c0,0,0,0,0,0
			C14.2,19.6,19.3,14.5,25.5,14.5 M25.5,12.6c-7.3,0-13.2,5.9-13.2,13.2S18.2,39,25.5,39s13.2-5.9,13.2-13.2l0,0
			C38.7,18.5,32.8,12.6,25.5,12.6z"/>
		<g class="st3">
			<path class="st4" d="M15.5,27.8h2.3c0.2,1.4,0.9,1.9,2.6,1.9c1.2,0,2.2-0.4,2.2-1.5c0-1.1-1.1-1.3-2.8-1.7c-2-0.5-3.9-1-3.9-3.4
				c0-2.3,1.8-3.4,4.4-3.4c2.6,0,4.2,1.3,4.4,3.6h-2.2c-0.1-1.2-1-1.7-2.2-1.7c-1.2,0-2.1,0.5-2.1,1.3c0,0.9,0.8,1.2,2.5,1.6
				c2.4,0.5,4.3,1.1,4.3,3.5c0,2.3-1.9,3.6-4.5,3.6C17.3,31.6,15.6,30.2,15.5,27.8z"/>
			<path class="st4" d="M31.4,29h-5.1v-2.4l5-6.4h2.2v7h1.7V29h-1.7v2.4h-2.1V29z M28.1,27.2h3.3V23h0L28.1,27.2L28.1,27.2z"/>
		</g>
	</g>
</g>
</svg>
