<svg xmlns="http://www.w3.org/2000/svg" viewBox="0 0 51 51" width="150" height="150">
<style type="text/css">
	.st0{fill:none;}
	.st1{opacity:0.85;}
	.st2{fill:#812621;}
	.st4{fill:#FFFFFF;}
</style>
<title>s7kreis_1</title>
<g>
	<rect class="st0" width="51" height="51"/>
	<g>
		<g class="st1">
			<circle class="st2" cx="25.5" cy="25.8" r="13.2"/>
		</g>
		<path class="st2" d="M25.5,14.5c6.2,0,11.3,5.1,11.3,11.3s-5.1,11.3-11.3,11.3c-6.2,0-11.3-5.1-11.3-11.3
			C14.2,19.6,19.3,14.5,25.5,14.5 M25.5,12.6c-7.3,0-13.2,5.9-13.2,13.2S18.2,39,25.5,39c7.3,0,13.2-5.9,13.2-13.2
			C38.7,18.5,32.8,12.6,25.5,12.6z"/>
		<g class="st3">
			<path class="st4" d="M16.1,27.8h2.3c0.2,1.4,0.9,1.9,2.6,1.9c1.2,0,2.2-0.4,2.2-1.5c0-1.1-1.1-1.3-2.8-1.7c-2-0.5-3.9-1-3.9-3.4
				c0-2.3,1.8-3.4,4.4-3.4c2.6,0,4.2,1.3,4.4,3.6H23c-0.1-1.2-1-1.7-2.2-1.7c-1.2,0-2.1,0.5-2.1,1.3c0,0.9,0.8,1.2,2.5,1.6
				c2.4,0.5,4.3,1.1,4.3,3.5c0,2.3-1.9,3.6-4.5,3.6C17.9,31.6,16.2,30.2,16.1,27.8z"/>
			<path class="st4" d="M32.4,22.3L32.4,22.3l-5.4,0v-1.9h7.8v1.8c-2,2-3.8,5.2-4,9.2h-2.4C28.5,27.3,30.7,24,32.4,22.3z"/>
		</g>
	</g>
</g>
</svg>
