<?xml version="1.0" encoding="utf-8"?>
<!-- Generator: Adobe Illustrator 24.0.0, SVG Export Plug-In . SVG Version: 6.00 Build 0)  -->
<svg version="1.1" id="Ebene_1" xmlns="http://www.w3.org/2000/svg" xmlns:xlink="http://www.w3.org/1999/xlink" x="0px" y="0px"
	 viewBox="0 0 51 51" style="enable-background:new 0 0 51 51;" xml:space="preserve" width="150" height="150">
<style type="text/css">
	.st0{fill:none;}
	.st1{opacity:0.85;}
	.st2{enable-background:new    ;}
	.st3{fill:#F2B42C;}
</style>
<title>s8kreis_1</title>
<g>
	<rect class="st0" width="51" height="51"/>
	<g>
		<g class="st1">
			<circle cx="25.5" cy="25.8" r="13.2"/>
		</g>
		<path d="M25.5,14.5c6.2,0,11.3,5.1,11.3,11.3c0,6.2-5.1,11.3-11.3,11.3c-6.2,0-11.3-5.1-11.3-11.3c0,0,0,0,0,0
			C14.2,19.6,19.3,14.5,25.5,14.5 M25.5,12.6c-7.3,0-13.2,5.9-13.2,13.2S18.2,39,25.5,39s13.2-5.9,13.2-13.2S32.8,12.6,25.5,12.6
			C25.5,12.6,25.5,12.6,25.5,12.6z"/>
		<g class="st2">
			<path class="st3" d="M15.7,27.8h2.3c0.2,1.4,0.9,1.9,2.6,1.9c1.2,0,2.2-0.4,2.2-1.5c0-1.1-1.1-1.3-2.8-1.7c-2-0.5-3.9-1-3.9-3.4
				c0-2.3,1.8-3.4,4.4-3.4c2.6,0,4.2,1.3,4.4,3.6h-2.2c-0.1-1.2-1-1.7-2.2-1.7c-1.2,0-2.1,0.5-2.1,1.3c0,0.9,0.8,1.2,2.5,1.6
				C23.1,25,25,25.5,25,28c0,2.3-1.9,3.6-4.5,3.6C17.5,31.6,15.7,30.2,15.7,27.8z"/>
			<path class="st3" d="M26.5,28.2c0-1.4,0.8-2.4,2-2.9v0c-1-0.4-1.5-1.1-1.5-2.2c0-1.9,1.6-2.9,4-2.9c2.4,0,3.9,1,3.9,2.9
				c0,1-0.6,1.7-1.5,2.2v0c1.2,0.4,2,1.5,2,2.8c0,2.3-1.9,3.5-4.4,3.5C28.5,31.6,26.5,30.4,26.5,28.2z M33.1,28.1
				c0-1.1-0.8-1.9-2.1-1.9c-1.3,0-2.2,0.7-2.2,1.9c0,1.1,0.8,1.7,2.2,1.7C32.2,29.8,33.1,29.1,33.1,28.1z M32.8,23.3
				c0-0.9-0.7-1.4-1.8-1.4c-1.2,0-1.8,0.6-1.8,1.4s0.7,1.5,1.8,1.5C32.1,24.7,32.8,24.1,32.8,23.3z"/>
		</g>
	</g>
</g>
</svg>
