<?xml version="1.0" encoding="utf-8"?>
<!-- Generator: Adobe Illustrator 24.0.0, SVG Export Plug-In . SVG Version: 6.00 Build 0)  -->
<svg version="1.1" id="Ebene_1" xmlns="http://www.w3.org/2000/svg" xmlns:xlink="http://www.w3.org/1999/xlink" x="0px" y="0px"
	 viewBox="0 0 150 150" style="enable-background:new 0 0 150 150;" xml:space="preserve" width="150" height="150">
<style type="text/css">
	.st0{fill:#E6E6E6;}
	.st1{fill:#999999;}
	.st2{fill:#666666;}
	.st3{fill:#FFFFFF;}
	.st4{fill:none;}
</style>
<title>unknown</title>
<g>
	<g>
		<circle class="st0" cx="75" cy="75" r="42.6"/>
		<path class="st1" d="M75,119.1c-24.4,0-44.1-19.7-44.1-44.1S50.6,30.9,75,30.9s44.1,19.7,44.1,44.1l0,0
			C119.1,99.1,99.4,118.8,75,119.1z M75,33.8c-22.6,0-41.2,18.5-41.2,41.2s18.5,41.2,41.2,41.2s41.2-18.5,41.2-41.2
			C116.2,52.1,97.9,33.8,75,33.8z"/>
	</g>
	<path class="st2" d="M89.7,47.1H60.3c-4.1,0-7.4,3.2-7.4,7.4v41.2c0,4.1,3.2,7.4,7.4,7.4h29.4c4.1,0,7.4-3.2,7.4-7.4V54.4
		C97.1,50.3,93.8,47.1,89.7,47.1z M63.2,97.1c-2.4,0-4.4-2.1-4.4-4.4c0-2.4,2.1-4.4,4.4-4.4c2.4,0,4.4,2.1,4.4,4.4
		C67.6,95,65.9,97.1,63.2,97.1L63.2,97.1z M86.8,97.1c-2.4,0-4.4-2.1-4.4-4.4c0-2.4,2.1-4.4,4.4-4.4c2.4,0,4.4,2.1,4.4,4.4
		C91.2,95,89.4,97.1,86.8,97.1L86.8,97.1z M91.2,73.2c0,1.8-1.5,3.2-3.2,3.2H61.8c-1.8,0-3.2-1.5-3.2-3.2V55.9
		c0-1.8,1.5-3.2,3.2-3.2h26.2c1.8,0,3.2,1.5,3.2,3.2V73.2z"/>
	<circle class="st3" cx="63.2" cy="92.6" r="4.4"/>
	<circle class="st3" cx="86.8" cy="92.6" r="4.4"/>
	<path class="st3" d="M62.1,52.9h26.2c1.8,0,3.2,1.5,3.2,3.2v17.4c0,1.8-1.5,3.2-3.2,3.2H62.1c-1.8,0-3.2-1.5-3.2-3.2V56.2
		C58.8,54.1,60.3,52.9,62.1,52.9z"/>
	<rect class="st4" width="150" height="150"/>
</g>
</svg>
