<svg xmlns="http://www.w3.org/2000/svg" viewBox="0 0 1133.80003 292.9228"><circle cx="538.80003" cy="150.42282" r="17.40002" style="fill:#fff"/><path d="M657.8,43.82281c-17.2-21.5-41.6-37.2-69.2-41.8-41.4-8.4-84,10.1-110.1,41.8-13.4,16.2-22.4,35.9-24.6,57.2-10.1,64.9,45.6,129.9,111.3,129.7,54.5,2.7,105.8-39.1,116.1-92.1C689.2,104.92282,678.9,70.12282,657.8,43.82281Zm-89.3,157.9c-31.7.4-62.5-18.7-76.8-46.8-21.2-37.6-5.8-87.7,28.8-111.2a79.4128,79.4128,0,0,1,16.9-8.7c26-10.9,55.1-6.1,77.7,8.7,17.6,11.5,31.3,28.9,36.7,49.6C667.4,145.52281,622.8,203.4228,568.5,201.72282Z" style="fill:#fff"/><path d="M145.1,43.92282H63.7c-35.1,0-63.7,24.2-63.7,54v66.2c0,29.8,28.6,54,63.7,54H183.9v20.7c0,16.1-17.4,29.3-38.9,29.3H14.5v.2c-.4,0-.7-.1-1.1-.1a12.35009,12.35009,0,1,0,0,24.7c.4,0,.7-.1,1.1-.1v.1H145c35.1,0,63.7-24.2,63.7-54v-140.9C208.7,68.22282,180.2,43.92282,145.1,43.92282Zm38.8,149.5H63.6c-21.4,0-38.9-13.1-38.9-29.2v-66.2c0-16.1,17.4-29.3,38.9-29.3H145c21.4,0,38.9,13.1,38.9,29.3Z" style="fill:#fff;fill-rule:evenodd"/><path d="M436.4,143.62282v-45.6c0-29.8-28.6-54-63.7-54H291.2c-35.1,0-63.7,24.2-63.7,54v66.1c0,29.8,28.6,54,63.7,54H423.9a12.4,12.4,0,1,0,0-24.8H291.3c-21.4,0-38.9-13.1-38.9-29.2v-20.7Zm-184-45.6c0-16.1,17.4-29.3,38.9-29.3h81.5c21.4,0,38.9,13.1,38.9,29.3v20.7H252.4Z" style="fill:#fff;fill-rule:evenodd"/><path d="M844.8,43.92282H763.4c-35.1,0-63.7,24.2-63.7,54v180.5a12.4,12.4,0,0,0,24.8,0v-60.3H844.8c35.1,0,63.7-24.2,63.7-54v-66.2C908.5,68.22282,879.9,43.92282,844.8,43.92282Zm38.9,120.2c0,16.1-17.4,29.2-38.9,29.2H724.5v-95.4c0-16.1,17.4-29.3,38.9-29.3h81.4c21.4,0,38.9,13.1,38.9,29.3v66.2Z" style="fill:#fff;fill-rule:evenodd"/><path d="M1086.5,118.22282c-.3,0-.6-.1-.9-.1h-1.1a7.21955,7.21955,0,0,0-1.5,0H974a24.70051,24.70051,0,0,1-.3-49.4h146.8a12.40625,12.40625,0,1,0,0-24.8H974a49.50051,49.50051,0,0,0-.4,99h111a25.0173,25.0173,0,0,1,24.30005,25.1,25.28829,25.28829,0,0,1-25.5,25.2H937a12.4,12.4,0,1,0,0,24.8h144.4c.19995,0,.5,0,.5-.1h.6c.4,0,.80005.1,1.2.1a49.93756,49.93756,0,0,0,2.8-99.8Z" style="fill:#fff;fill-rule:evenodd"/><path d="M145.1,43.92282H63.7c-35.1,0-63.7,24.2-63.7,54v66.2c0,29.8,28.6,54,63.7,54H183.9v20.7c0,16.1-17.4,29.3-38.9,29.3H14.5v.2c-.4,0-.7-.1-1.1-.1a12.35009,12.35009,0,1,0,0,24.7c.4,0,.7-.1,1.1-.1v.1H145c35.1,0,63.7-24.2,63.7-54v-140.9C208.7,68.22282,180.2,43.92282,145.1,43.92282Zm38.8,149.5H63.6c-21.4,0-38.9-13.1-38.9-29.2v-66.2c0-16.1,17.4-29.3,38.9-29.3H145c21.4,0,38.9,13.1,38.9,29.3Z" style="fill:#fff"/><path d="M436.4,143.62282v-45.6c0-29.8-28.6-54-63.7-54H291.2c-35.1,0-63.7,24.2-63.7,54v66.1c0,29.8,28.6,54,63.7,54H423.9a12.4,12.4,0,1,0,0-24.8H291.3c-21.4,0-38.9-13.1-38.9-29.2v-20.7Zm-184-45.6c0-16.1,17.4-29.3,38.9-29.3h81.5c21.4,0,38.9,13.1,38.9,29.3v20.7H252.4Z" style="fill:#fff"/><circle cx="538.80003" cy="150.42282" r="17.40002" style="fill:#fff"/><path d="M844.8,43.92282H763.4c-35.1,0-63.7,24.2-63.7,54v180.5a12.4,12.4,0,0,0,24.8,0v-60.3H844.8c35.1,0,63.7-24.2,63.7-54v-66.2C908.5,68.22282,879.9,43.92282,844.8,43.92282Zm38.9,120.2c0,16.1-17.4,29.2-38.9,29.2H724.5v-95.4c0-16.1,17.4-29.3,38.9-29.3h81.4c21.4,0,38.9,13.1,38.9,29.3v66.2Z" style="fill:#fff"/><path d="M1133.8,168.02281a50.08247,50.08247,0,0,1-50,50,4.86729,4.86729,0,0,1-1.2-.1h-.6a2.03482,2.03482,0,0,1-.5.1h-144.4a12.4,12.4,0,1,1,0-24.8h146.4a25.15848,25.15848,0,0,0,1.19995-50.3h-111c-27.1,0-49.2-22.3-49.2-49.5a49.57022,49.57022,0,0,1,49.6-49.5h146.5a12.40625,12.40625,0,1,1,0,24.8H973.8a24.70051,24.70051,0,0,0,.30005,49.4h109a7.35007,7.35007,0,0,1,1.5,0h1.1a2.76868,2.76868,0,0,1,.9.1A49.838,49.838,0,0,1,1133.8,168.02281Z" style="fill:#fff"/></svg>