<svg xmlns="http://www.w3.org/2000/svg" width="21.316" height="20.783" viewBox="0 0 21.316 20.783"><defs><style>.a{fill:#fff;}</style></defs><path class="a" d="M7.13,17.3c0,.086-.1.155-.223.155-.142.013-.241-.056-.241-.155s.1-.155.223-.155S7.13,17.2,7.13,17.3ZM5.793,17.1c-.03.086.056.185.185.211a.2.2,0,0,0,.266-.086c.026-.086-.056-.185-.185-.223A.221.221,0,0,0,5.793,17.1Zm1.9-.073c-.125.03-.211.112-.2.211s.125.142.254.112.211-.112.2-.2S7.817,17.018,7.693,17.031ZM10.521.563A10.305,10.305,0,0,0,0,11.049a10.774,10.774,0,0,0,7.284,10.28c.55.1.743-.241.743-.52s-.013-1.736-.013-2.639c0,0-3.008.645-3.64-1.281,0,0-.49-1.251-1.195-1.573,0,0-.984-.675.069-.662a2.269,2.269,0,0,1,1.659,1.109,2.272,2.272,0,0,0,3.133.9,2.389,2.389,0,0,1,.688-1.448C6.326,14.947,3.9,14.6,3.9,10.464A3.257,3.257,0,0,1,4.916,7.933a4.06,4.06,0,0,1,.112-2.918c.9-.279,2.965,1.16,2.965,1.16a10.153,10.153,0,0,1,5.4,0s2.067-1.444,2.965-1.16a4.059,4.059,0,0,1,.112,2.918,3.341,3.341,0,0,1,1.109,2.531c0,4.147-2.531,4.478-4.934,4.749a2.542,2.542,0,0,1,.731,1.994c0,1.448-.013,3.24-.013,3.593,0,.279.2.619.743.52a10.675,10.675,0,0,0,7.211-10.271A10.538,10.538,0,0,0,10.521.563ZM4.177,15.385c-.056.043-.043.142.03.223s.168.1.223.043.043-.142-.03-.223S4.233,15.329,4.177,15.385Zm-.464-.348c-.03.056.013.125.1.168A.128.128,0,0,0,4,15.174c.03-.056-.013-.125-.1-.168C3.812,14.981,3.743,14.994,3.713,15.037Zm1.392,1.53c-.069.056-.043.185.056.266.1.1.223.112.279.043s.03-.185-.056-.266C5.29,16.511,5.161,16.5,5.106,16.567Zm-.49-.632c-.069.043-.069.155,0,.254s.185.142.241.1a.2.2,0,0,0,0-.266C4.8,15.922,4.684,15.879,4.616,15.935Z" transform="translate(0 -0.563)"/></svg>