<svg xmlns="http://www.w3.org/2000/svg" viewBox="0 0 1133.85827 292.89138"><defs><style>.cls-1,.cls-3{fill:#6987a1;}.cls-2{fill:#76b833;}.cls-3{fill-rule:evenodd;}.cls-4{fill:none;}</style></defs><g id="Ebene_2" data-name="Ebene 2"><g id="Ebene_1-2" data-name="Ebene 1"><path class="cls-1" d="M538.89028,132.98512a17.3608,17.3608,0,1,1-17.375,17.36088A17.3914,17.3914,0,0,1,538.89028,132.98512Z"/><path class="cls-2" d="M568.52262,201.71967c54.34281,1.65617,98.92871-56.29412,83.26055-108.36372C639.5906,46.1251,583.66786,15.70131,537.43662,35.107c-46.04943,16.788-70.10025,76.57641-45.65991,119.82734C506.06754,183.05252,536.78709,202.136,568.52262,201.71967Zm-3.25477,28.97083c-65.70165.27964-121.37187-64.73613-111.32246-129.66772C460.64088,38.039,526.14707-10.69185,588.67857,2.03139c61.26071,10.108,106.9516,75.30941,92.71774,136.56061C671.08479,191.58063,619.74476,233.429,565.26785,230.6905Z"/><path class="cls-3" d="M145.11263,43.89609H63.66538C28.568,43.89609,0,68.13278,0,97.92439v66.17077c0,29.79179,28.568,54.02549,63.66538,54.02549H183.98019v20.74172c0,16.12856-17.43167,29.248-38.86756,29.248L22.3364,268.09453l-7.72243-.01972v.16218c-.35972-.02958-.69712-.10671-1.0568-.10671a12.34551,12.34551,0,1,0,0,24.691c.35968,0,.69708-.08681,1.0568-.10636v.14651l130.49866.02994c35.10934,0,63.66542-24.23775,63.66542-54.029V97.92439C208.77805,68.13278,180.222,43.89609,145.11263,43.89609ZM183.98019,193.3437H63.66538c-21.43339,0-38.86809-13.12015-38.86809-29.24854V97.92439c0-16.13156,17.4347-29.25118,38.86809-29.25118h81.44725c21.43554,0,38.86756,13.11962,38.86756,29.25118Z"/><path class="cls-3" d="M436.46309,143.56669V97.92439c0-29.79161-28.55754-54.0283-63.6571-54.0283H291.35148c-35.11,0-63.65812,24.23669-63.65812,54.0283v66.17077c0,29.79179,28.54816,54.02549,63.65812,54.02549l132.70835.00968v-.00968a12.38848,12.38848,0,1,0,0-24.77695H291.35148c-21.42613,0-38.86083-13.12015-38.86083-29.24854V143.4325ZM291.35148,68.67321H372.806c21.42612,0,38.86,13.11962,38.86,29.25118V118.6633H252.49065V97.92439C252.49065,81.79283,269.92535,68.67321,291.35148,68.67321Z"/><path class="cls-3" d="M844.83327,43.89609h-81.4472c-35.10987,0-63.66538,24.23669-63.66538,54.0283V278.41582a12.39865,12.39865,0,0,0,24.79729,0V218.12065H844.83327c35.10714,0,63.66547-24.2337,63.66547-54.02549V97.92439C908.49874,68.13278,879.94041,43.89609,844.83327,43.89609ZM724.518,97.92439c0-16.13156,17.43184-29.25118,38.86809-29.25118h81.4472c21.43379,0,38.878,13.11962,38.878,29.25118v66.17077c0,16.12839-17.44425,29.24854-38.878,29.24854H724.518Z"/><path class="cls-3" d="M1086.51049,118.13272a6.16529,6.16529,0,0,0-.863-.07889l-1.1043-.01743a6.92191,6.92191,0,0,0-1.4836.01743h-66.6295l.02738-.047-42.37625.02958a24.73079,24.73079,0,0,1-.31011-49.46h146.82881a12.39635,12.39635,0,1,0,0-24.77677l-146.5187-.01744a49.50586,49.50586,0,0,0-.32745,99.011l65.49633.03751v.00951l45.46708-.00951a25.16279,25.16279,0,0,1-1.201,50.30934h-.04015l-146.41939-.02659a12.388,12.388,0,1,0,0,24.77607h144.40521a1.237,1.237,0,0,0,.50416-.05864l.63729.03962c.40942.02959.82624.06674,1.24024.06674a49.9358,49.9358,0,0,0,2.667-99.80443Z"/><rect id="SVGID" class="cls-4" y="43.78215" width="1133.85809" height="249.10835"/></g></g></svg>