<svg xmlns="http://www.w3.org/2000/svg" width="22.004" height="17.871" viewBox="0 0 22.004 17.871"><defs><style>.a{fill:#fff;}</style></defs><path class="a" d="M19.742,7.835c.014.2.014.391.014.586A12.743,12.743,0,0,1,6.925,21.252,12.744,12.744,0,0,1,0,19.227a9.329,9.329,0,0,0,1.089.056,9.031,9.031,0,0,0,5.6-1.927,4.518,4.518,0,0,1-4.216-3.127,5.687,5.687,0,0,0,.852.07,4.77,4.77,0,0,0,1.187-.154A4.51,4.51,0,0,1,.894,9.719V9.664a4.542,4.542,0,0,0,2.038.572A4.516,4.516,0,0,1,1.536,4.2a12.818,12.818,0,0,0,9.3,4.719,5.091,5.091,0,0,1-.112-1.033,4.514,4.514,0,0,1,7.8-3.086,8.879,8.879,0,0,0,2.862-1.089A4.5,4.5,0,0,1,19.407,6.2,9.04,9.04,0,0,0,22,5.5a9.694,9.694,0,0,1-2.262,2.332Z" transform="translate(0 -3.381)"/></svg>