<svg xmlns="http://www.w3.org/2000/svg" width="18.429" height="21.507" viewBox="0 0 18.429 21.507"><defs><style>.a{fill:#fff;}</style></defs><path class="a" d="M7.81,10.793q-.13.238-3.365,5.928a1.009,1.009,0,0,1-.85.6H.471a.457.457,0,0,1-.408-.691l3.312-5.822q.014,0,0-.014L1.268,7.165a.427.427,0,0,1,.408-.677H4.8a1,1,0,0,1,.864.586ZM18.364,2.927,11.452,15.07v.014l4.4,8a.43.43,0,0,1-.408.677H12.312a.955.955,0,0,1-.864-.586L7.013,15.084q.238-.418,6.95-12.249a.968.968,0,0,1,.84-.586h3.153a.437.437,0,0,1,.408.677Z" transform="translate(-0.002 -2.25)"/></svg>