<?xml version="1.0" encoding="UTF-8" standalone="no"?>
<svg
   xmlns:dc="http://purl.org/dc/elements/1.1/"
   xmlns:cc="http://creativecommons.org/ns#"
   xmlns:rdf="http://www.w3.org/1999/02/22-rdf-syntax-ns#"
   xmlns:svg="http://www.w3.org/2000/svg"
   xmlns="http://www.w3.org/2000/svg"
   xmlns:sodipodi="http://sodipodi.sourceforge.net/DTD/sodipodi-0.dtd"
   xmlns:inkscape="http://www.inkscape.org/namespaces/inkscape"
   id="s3kreis"
   width="25"
   height="24.999966"
   viewBox="0 0 25 24.999966"
   version="1.1"
   sodipodi:docname="s3kreis.svg"
   inkscape:version="1.0.2 (e86c870879, 2021-01-15, custom)">
  <metadata
     id="metadata13">
    <rdf:RDF>
      <cc:Work
         rdf:about="">
        <dc:format>image/svg+xml</dc:format>
        <dc:type
           rdf:resource="http://purl.org/dc/dcmitype/StillImage" />
        <dc:title></dc:title>
      </cc:Work>
    </rdf:RDF>
  </metadata>
  <defs
     id="defs11" />
  <sodipodi:namedview
     pagecolor="#ffffff"
     bordercolor="#666666"
     borderopacity="1"
     objecttolerance="10"
     gridtolerance="10"
     guidetolerance="10"
     inkscape:pageopacity="0"
     inkscape:pageshadow="2"
     inkscape:window-width="4300"
     inkscape:window-height="1721"
     id="namedview9"
     showgrid="false"
     fit-margin-top="0"
     fit-margin-left="0"
     fit-margin-right="0"
     fit-margin-bottom="0"
     inkscape:zoom="1.3833333"
     inkscape:cx="35.76675"
     inkscape:cy="65.355875"
     inkscape:window-x="2391"
     inkscape:window-y="-9"
     inkscape:window-maximized="1"
     inkscape:current-layer="s3kreis" />
  <rect
     id="Rechteck_36"
     data-name="Rechteck 36"
     width="150"
     height="150"
     fill="none"
     x="-36.200001"
     y="-37.099998" />
  <g
     id="Gruppe_146"
     data-name="Gruppe 146"
     opacity="0.85"
     transform="matrix(0.3221645,0,0,0.3221645,-11.662354,-11.952303)">
    <circle
       id="Ellipse_20"
       data-name="Ellipse 20"
       cx="38.799999"
       cy="38.799999"
       r="38.799999"
       transform="translate(36.2,37.1)"
       fill="#8d1873" />
  </g>
  <path
     id="Pfad_482"
     data-name="Pfad 482"
     d="M 12.499984,1.771905 A 10.695862,10.695862 0 1 1 1.804122,12.467766 v 0 A 10.75224,10.75224 0 0 1 12.499984,1.771905 m 0,-1.771904950000003 A 12.499983,12.499983 0 1 0 24.999966,12.499983 v 0 A 12.470666,12.470666 0 0 0 12.558618,4.9999997e-8 Z"
     fill="#8d1873"
     style="stroke-width:0.322165" />
  <path
     id="Pfad_483"
     data-name="Pfad 483"
     d="m 3.221646,14.400753 h 2.190719 c 0.193298,1.320875 0.837627,1.804122 2.44845,1.804122 1.127576,0 2.094069,-0.386598 2.094069,-1.417524 0,-1.030927 -1.030926,-1.224225 -2.641749,-1.610823 -1.90077,-0.483247 -3.704892,-0.934277 -3.704892,-3.221645 0,-2.190718 1.707472,-3.221645 4.155923,-3.221645 2.44845,0 3.994839,1.224225 4.155922,3.414944 H 9.826018 C 9.729368,9.020606 8.891741,8.537359 7.731949,8.537359 c -1.159792,0 -1.99742,0.483247 -1.99742,1.224225 0,0.837628 0.773195,1.127576 2.384017,1.514174 2.287368,0.483246 4.059273,1.030926 4.059273,3.318294 0,2.190719 -1.804121,3.414944 -4.252571,3.414944 -2.99613,-0.03222 -4.606953,-1.353091 -4.703602,-3.608243 z"
     fill="#ffffff"
     style="stroke-width:0.322165" />
  <path
     id="Pfad_484"
     data-name="Pfad 484"
     d="m 13.434261,14.207455 h 1.99742 c 0.09665,1.224225 0.676545,2.094069 2.094069,2.094069 1.127576,0 1.804121,-0.676546 1.804121,-1.707472 0,-1.030926 -0.676545,-1.610823 -1.90077,-1.610823 h -0.676546 v -1.514173 h 0.579896 c 0.934277,0 1.707472,-0.483246 1.707472,-1.417523 0,-0.837628 -0.579896,-1.320875 -1.514173,-1.320875 -1.127576,0 -1.804121,0.773195 -1.804121,1.900771 h -1.99742 c 0.09665,-2.09407 1.320874,-3.414944 3.801541,-3.414944 2.190719,0 3.608242,1.030926 3.608242,2.835048 0,1.127575 -0.773194,1.90077 -1.804121,2.190718 v 0 c 1.320875,0.289948 2.094069,1.127576 2.094069,2.641749 0,2.190719 -1.804121,3.221645 -3.89819,3.221645 -2.738398,-0.128866 -4.091489,-1.643039 -4.091489,-3.89819 z"
     fill="#ffffff"
     style="stroke-width:0.322165" />
</svg>
