<?xml version="1.0" encoding="UTF-8" standalone="no"?>
<svg
   xmlns:dc="http://purl.org/dc/elements/1.1/"
   xmlns:cc="http://creativecommons.org/ns#"
   xmlns:rdf="http://www.w3.org/1999/02/22-rdf-syntax-ns#"
   xmlns:svg="http://www.w3.org/2000/svg"
   xmlns="http://www.w3.org/2000/svg"
   xmlns:sodipodi="http://sodipodi.sourceforge.net/DTD/sodipodi-0.dtd"
   xmlns:inkscape="http://www.inkscape.org/namespaces/inkscape"
   id="s7kreis"
   width="25"
   height="24.999996"
   viewBox="0 0 25 24.999996"
   version="1.1"
   sodipodi:docname="s7kreis.svg"
   inkscape:version="1.0.2 (e86c870879, 2021-01-15, custom)">
  <metadata
     id="metadata13">
    <rdf:RDF>
      <cc:Work
         rdf:about="">
        <dc:format>image/svg+xml</dc:format>
        <dc:type
           rdf:resource="http://purl.org/dc/dcmitype/StillImage" />
        <dc:title></dc:title>
      </cc:Work>
    </rdf:RDF>
  </metadata>
  <defs
     id="defs11" />
  <sodipodi:namedview
     pagecolor="#ffffff"
     bordercolor="#666666"
     borderopacity="1"
     objecttolerance="10"
     gridtolerance="10"
     guidetolerance="10"
     inkscape:pageopacity="0"
     inkscape:pageshadow="2"
     inkscape:window-width="2149"
     inkscape:window-height="1712"
     id="namedview9"
     showgrid="false"
     fit-margin-top="0"
     fit-margin-left="0"
     fit-margin-right="0"
     fit-margin-bottom="0"
     inkscape:zoom="5.5333333"
     inkscape:cx="38.8"
     inkscape:cy="37.9"
     inkscape:window-x="2391"
     inkscape:window-y="0"
     inkscape:window-maximized="0"
     inkscape:current-layer="s7kreis" />
  <rect
     id="Rechteck_39"
     data-name="Rechteck 39"
     width="150"
     height="150"
     fill="none"
     x="-36.200001"
     y="-37.099998" />
  <g
     id="Gruppe_149"
     data-name="Gruppe 149"
     opacity="0.85"
     transform="matrix(0.32216491,0,0,0.32216491,-11.66237,-11.952318)">
    <circle
       id="Ellipse_23"
       data-name="Ellipse 23"
       cx="38.799999"
       cy="38.799999"
       r="38.799999"
       transform="translate(36.2,37.1)"
       fill="#812621" />
  </g>
  <path
     id="Pfad_491"
     data-name="Pfad 491"
     d="M 12.499998,1.771907 A 10.695875,10.695875 0 1 1 1.8041233,12.467782 10.695875,10.695875 0 0 1 12.499998,1.771907 m 0,-1.771907 a 12.499998,12.499998 0 1 0 12.499999,12.499998 v 0 A 12.4913,12.4913 0 0 0 12.517718,0 Z"
     fill="#812621"
     style="stroke-width:0.322165" />
  <path
     id="Pfad_492"
     data-name="Pfad 492"
     d="m 3.6082473,14.400771 h 2.190721 c 0.193299,1.320877 0.837629,1.804124 2.448454,1.804124 1.127577,0 2.0940717,-0.386598 2.0940717,-1.417526 0,-1.030927 -1.0309277,-1.224226 -2.6417527,-1.610824 -1.900773,-0.483248 -3.704896,-0.934278 -3.704896,-3.221649 0,-2.190722 1.707474,-3.221649 4.155927,-3.221649 2.4484537,0 3.9948447,1.224226 4.1559277,3.414948 H 10.115978 C 10.019329,9.020617 9.1817003,8.53737 8.0219063,8.53737 c -1.127577,0 -1.997422,0.483247 -1.997422,1.224227 0,0.837629 0.773196,1.127577 2.38402,1.514175 2.2873707,0.451031 4.0914937,1.030928 4.0914937,3.318298 0,2.190722 -1.804123,3.414948 -4.2525757,3.414948 -2.963917,-0.03222 -4.574742,-1.353092 -4.639175,-3.608247 z"
     fill="#ffffff"
     style="stroke-width:0.322165" />
  <path
     id="Pfad_493"
     data-name="Pfad 493"
     d="M 19.039946,9.1817 H 13.917524 V 7.377576 h 7.377577 V 9.08505 a 13.354702,13.354702 0 0 0 -3.801546,8.730669 H 15.206184 C 15.33505,13.917524 17.429122,10.792524 19.039946,9.1817 Z"
     fill="#ffffff"
     style="stroke-width:0.322165" />
</svg>
