<?xml version="1.0" encoding="UTF-8" standalone="no"?>
<svg
   xmlns:dc="http://purl.org/dc/elements/1.1/"
   xmlns:cc="http://creativecommons.org/ns#"
   xmlns:rdf="http://www.w3.org/1999/02/22-rdf-syntax-ns#"
   xmlns:svg="http://www.w3.org/2000/svg"
   xmlns="http://www.w3.org/2000/svg"
   xmlns:sodipodi="http://sodipodi.sourceforge.net/DTD/sodipodi-0.dtd"
   xmlns:inkscape="http://www.inkscape.org/namespaces/inkscape"
   version="1.1"
   id="Ebene_1"
   x="0px"
   y="0px"
   viewBox="0 0 25 25"
   xml:space="preserve"
   width="25"
   height="25"
   sodipodi:docname="unknown.svg"
   inkscape:version="1.0.2 (e86c870879, 2021-01-15, custom)"><metadata
   id="metadata29"><rdf:RDF><cc:Work
       rdf:about=""><dc:format>image/svg+xml</dc:format><dc:type
         rdf:resource="http://purl.org/dc/dcmitype/StillImage" /><dc:title>unknown</dc:title></cc:Work></rdf:RDF></metadata><defs
   id="defs27" /><sodipodi:namedview
   pagecolor="#ffffff"
   bordercolor="#666666"
   borderopacity="1"
   objecttolerance="10"
   gridtolerance="10"
   guidetolerance="10"
   inkscape:pageopacity="0"
   inkscape:pageshadow="2"
   inkscape:window-width="2149"
   inkscape:window-height="1712"
   id="namedview25"
   showgrid="false"
   fit-margin-top="0"
   fit-margin-left="0"
   fit-margin-right="0"
   fit-margin-bottom="0"
   inkscape:zoom="5.5333333"
   inkscape:cx="44.1"
   inkscape:cy="44.1"
   inkscape:window-x="2391"
   inkscape:window-y="0"
   inkscape:window-maximized="0"
   inkscape:current-layer="g22" />
<style
   type="text/css"
   id="style2">
	.st0{fill:#E6E6E6;}
	.st1{fill:#999999;}
	.st2{fill:#666666;}
	.st3{fill:#FFFFFF;}
	.st4{fill:none;}
</style>
<title
   id="title4">unknown</title>
<g
   id="g22"
   transform="translate(-30.9,-30.9)">
	<g
   id="g10"
   transform="matrix(0.28344671,0,0,0.28344671,22.141497,22.141497)">
		<circle
   class="st0"
   cx="75"
   cy="75"
   r="42.599998"
   id="circle6" />
		<path
   class="st1"
   d="M 75,119.1 C 50.6,119.1 30.9,99.4 30.9,75 30.9,50.6 50.6,30.9 75,30.9 c 24.4,0 44.1,19.7 44.1,44.1 v 0 c 0,24.1 -19.7,43.8 -44.1,44.1 z m 0,-85.3 c -22.6,0 -41.2,18.5 -41.2,41.2 0,22.7 18.5,41.2 41.2,41.2 22.7,0 41.2,-18.5 41.2,-41.2 C 116.2,52.1 97.9,33.8 75,33.8 Z"
   id="path8" />
	</g>
	<path
   class="st2"
   d="m 47.566667,35.491837 h -8.333334 c -1.162131,0 -2.097505,0.907029 -2.097505,2.097505 v 11.678005 c 0,1.162131 0.907029,2.097506 2.097505,2.097506 h 8.333334 c 1.162131,0 2.097505,-0.90703 2.097505,-2.097506 V 37.560998 c 0,-1.162132 -0.935374,-2.069161 -2.097505,-2.069161 z m -7.511338,14.172335 c -0.680272,0 -1.247166,-0.595238 -1.247166,-1.247165 0,-0.680272 0.595238,-1.247166 1.247166,-1.247166 0.680272,0 1.247165,0.595238 1.247165,1.247166 0,0.651927 -0.481859,1.247165 -1.247165,1.247165 z m 6.689342,0 c -0.680272,0 -1.247165,-0.595238 -1.247165,-1.247165 0,-0.680272 0.595238,-1.247166 1.247165,-1.247166 0.680272,0 1.247166,0.595238 1.247166,1.247166 0,0.651927 -0.510204,1.247165 -1.247166,1.247165 z m 1.247166,-6.774376 c 0,0.510204 -0.42517,0.907029 -0.90703,0.907029 h -7.426304 c -0.510204,0 -0.907029,-0.42517 -0.907029,-0.907029 v -4.903628 c 0,-0.510204 0.42517,-0.90703 0.907029,-0.90703 h 7.426304 c 0.510204,0 0.90703,0.42517 0.90703,0.90703 z"
   id="path12"
   style="stroke-width:0.283447" />
	<circle
   class="st3"
   cx="40.055328"
   cy="48.38866"
   r="1.2471656"
   id="circle14"
   style="stroke-width:0.283447" />
	<circle
   class="st3"
   cx="46.744671"
   cy="48.38866"
   r="1.2471656"
   id="circle16"
   style="stroke-width:0.283447" />
	<path
   class="st3"
   d="m 39.743537,37.135828 h 7.426304 c 0.510204,0 0.90703,0.42517 0.90703,0.907029 v 4.931973 c 0,0.510204 -0.42517,0.907029 -0.90703,0.907029 h -7.426304 c -0.510204,0 -0.907029,-0.42517 -0.907029,-0.907029 v -4.903628 c -0.02835,-0.595238 0.396825,-0.935374 0.907029,-0.935374 z"
   id="path18"
   style="stroke-width:0.283447" />
	<rect
   class="st4"
   width="150"
   height="150"
   id="rect20"
   x="0"
   y="0" />
</g>
</svg>
